<?xml version="1.0" standalone="no"?>
<!DOCTYPE svg PUBLIC "-//W3C//DTD SVG 20010904//EN"
 "http://www.w3.org/TR/2001/REC-SVG-20010904/DTD/svg10.dtd">
<svg version="1.0" xmlns="http://www.w3.org/2000/svg"
 width="512.000000pt" height="512.000000pt" viewBox="0 0 512.000000 512.000000"
 preserveAspectRatio="xMidYMid meet">
<metadata>
Created by potrace 1.11, written by Peter Selinger 2001-2013
</metadata>
<g transform="translate(0.000000,512.000000) scale(0.100000,-0.100000)"
fill="#000000" stroke="none">
<path d="M1020 4690 c-210 -38 -241 -324 -44 -406 17 -7 84 -16 150 -19 65 -3
148 -11 184 -16 71 -10 159 -37 161 -47 1 -4 2 -94 3 -200 l2 -192 -46 -14
c-156 -46 -288 -170 -340 -319 -11 -30 -22 -70 -26 -88 -8 -43 -7 -169 1 -177
3 -4 34 3 68 15 72 25 230 70 267 77 14 2 43 9 65 14 22 6 54 13 70 16 17 2
68 11 115 20 47 8 112 17 145 21 33 3 74 8 90 10 69 8 237 18 328 19 l98 0 -7
31 c-12 59 -68 158 -119 214 -59 63 -154 124 -230 146 l-51 14 1 218 c0 120
-3 240 -8 267 -27 156 -155 279 -352 339 -151 47 -421 76 -525 57z"/>
<path d="M2258 3235 c-2 -1 -73 -5 -158 -8 -149 -6 -358 -28 -444 -47 -23 -4
-57 -11 -76 -14 -114 -18 -366 -91 -518 -150 -192 -74 -409 -193 -557 -305
-212 -161 -383 -383 -455 -591 -53 -155 -62 -358 -21 -515 58 -219 218 -448
441 -628 274 -221 688 -403 1100 -483 14 -2 36 -7 50 -9 50 -10 176 -29 270
-39 224 -26 558 -26 780 0 204 23 537 94 678 145 256 92 366 143 557 261 321
198 570 512 621 782 2 12 7 35 10 51 13 55 11 218 -2 296 -66 380 -384 727
-885 966 -125 60 -368 148 -463 168 -10 3 -53 13 -95 24 -42 11 -96 23 -121
26 -24 4 -47 8 -50 10 -5 3 -65 12 -195 30 -89 12 -116 14 -250 20 -77 4 -157
8 -177 9 -21 2 -39 2 -40 1z m-645 -974 c143 -68 227 -205 223 -362 -4 -113
-56 -220 -143 -293 -122 -102 -318 -112 -459 -23 -109 68 -176 194 -175 328 0
171 111 320 276 372 82 26 196 17 278 -22z m1110 1 c84 -39 150 -105 190 -190
29 -61 32 -76 32 -163 0 -90 -2 -99 -37 -170 -70 -141 -192 -217 -348 -217
-181 0 -320 107 -379 291 -26 80 -5 218 46 300 77 124 199 188 349 183 66 -2
93 -8 147 -34z m1049 24 c103 -28 186 -91 241 -186 90 -156 53 -366 -86 -486
-78 -67 -163 -95 -273 -91 -221 9 -380 186 -370 411 12 243 249 414 488 352z"/>
<path d="M4710 2950 c-42 -8 -89 -31 -112 -57 -41 -45 -48 -85 -48 -280 l0
-188 47 -97 48 -98 136 0 c122 0 137 2 141 18 2 9 3 139 2 287 -1 238 -3 275
-19 308 -35 74 -119 120 -195 107z"/>
<path d="M4706 2006 c4 -28 8 -106 8 -174 l1 -123 137 2 c110 1 144 4 170 19
83 44 120 149 80 226 -44 86 -85 102 -265 102 l-139 0 8 -52z"/>
<path d="M4674 1523 c-20 -64 -62 -167 -91 -220 -33 -62 -33 -63 -33 -200 0
-113 4 -145 19 -179 54 -120 215 -143 304 -45 21 23 39 56 43 78 4 21 8 160 8
308 l0 270 -122 3 c-110 2 -123 1 -128 -15z"/>
</g>
</svg>
