<?xml version="1.0" standalone="no"?>
<!DOCTYPE svg PUBLIC "-//W3C//DTD SVG 20010904//EN"
 "http://www.w3.org/TR/2001/REC-SVG-20010904/DTD/svg10.dtd">
<svg version="1.0" xmlns="http://www.w3.org/2000/svg"
 width="256.000000pt" height="256.000000pt" viewBox="0 0 256.000000 256.000000"
 preserveAspectRatio="xMidYMid meet">
<metadata>
Created by potrace 1.11, written by Peter Selinger 2001-2013
</metadata>
<g transform="translate(0.000000,256.000000) scale(0.100000,-0.100000)"
fill="#000000" stroke="none">
<path d="M1687 2539 c-23 -32 0 -74 46 -83 33 -6 89 -51 108 -88 5 -10 8 -18
7 -18 -2 0 -21 7 -43 15 -81 29 -155 10 -155 -39 0 -32 21 -47 72 -50 55 -3
92 -28 125 -84 26 -44 26 -46 8 -56 -47 -27 -92 -85 -107 -137 l-15 -54 -509
-1 c-439 -1 -518 -3 -578 -17 -331 -81 -560 -316 -631 -647 -11 -51 -14 -189
-15 -657 0 -527 1 -593 16 -607 23 -24 515 -24 538 0 14 13 16 50 16 248 0
263 7 306 65 373 19 23 56 51 82 64 42 20 63 23 200 24 84 1 154 -1 154 -4 1
-3 2 -161 3 -349 1 -327 2 -344 21 -358 15 -11 69 -14 265 -14 223 0 248 2
262 18 13 14 16 49 16 192 1 96 6 197 13 225 50 215 235 375 455 392 56 4 71
2 71 -8 1 -14 11 -64 38 -184 9 -38 18 -79 20 -90 3 -11 7 -29 9 -40 28 -120
38 -169 47 -218 18 -94 29 -101 145 -100 83 1 100 4 111 19 11 16 13 131 11
659 -4 637 -4 640 -26 701 -52 139 -150 252 -274 314 -44 22 -86 40 -93 40 -7
0 -15 20 -18 52 -8 65 -44 119 -102 153 -34 21 -45 33 -47 53 -8 145 -82 294
-173 348 -64 37 -118 43 -138 13z m327 -514 c14 -13 26 -28 27 -32 0 -4 2 -17
4 -29 4 -19 0 -20 -95 -19 -55 1 -102 4 -105 7 -9 9 12 55 36 77 33 30 98 29
133 -4z m-947 -188 c25 -15 -19 -79 -66 -95 -40 -14 -91 7 -114 46 -30 51 -21
58 79 57 49 0 94 -4 101 -8z m161 -208 c3 -233 -2 -260 -49 -284 -37 -20 -371
-21 -409 -2 -49 24 -55 54 -55 282 l1 210 27 3 c22 3 27 -1 27 -20 1 -69 77
-157 152 -176 82 -21 176 17 220 89 23 37 30 58 37 110 1 3 11 5 24 4 22 -2
22 -2 25 -216z m312 210 c0 -4 -6 -12 -14 -18 -7 -6 -26 -39 -42 -74 l-28 -62
0 -285 c0 -283 0 -285 24 -333 78 -155 276 -189 394 -68 66 67 72 103 71 388
0 196 -3 254 -14 267 -17 20 -41 21 -66 2 -19 -13 -20 -29 -21 -268 0 -283 -3
-297 -69 -338 -68 -42 -158 -20 -199 49 -18 30 -19 54 -19 300 0 288 3 304 57
368 51 61 99 75 264 77 81 1 165 -1 187 -5 22 -5 51 -11 65 -13 93 -20 225
-128 274 -224 54 -106 54 -112 55 -734 l1 -578 -32 0 -33 0 -38 173 c-21 94
-40 181 -43 192 -12 59 -67 308 -107 480 -20 91 -25 101 -50 109 -23 8 -31 6
-48 -11 -20 -19 -20 -25 -9 -74 6 -30 18 -85 26 -124 8 -38 17 -77 20 -86 4
-13 -7 -17 -63 -22 -128 -10 -273 -79 -364 -172 -61 -62 -93 -110 -129 -189
-35 -78 -46 -121 -49 -199 -1 -30 -5 -34 -52 -51 -69 -24 -141 -96 -165 -165
l-19 -51 -62 0 c-35 0 -63 3 -64 8 0 4 -1 160 -1 346 -1 323 -2 340 -21 359
-18 18 -30 19 -216 15 -160 -4 -204 -8 -241 -23 -62 -25 -109 -60 -150 -111
-55 -68 -72 -124 -78 -250 l-4 -112 -41 -12 c-91 -27 -169 -106 -191 -193 -6
-26 -9 -27 -71 -27 l-66 0 1 543 c1 581 5 626 53 747 73 179 218 327 389 397
33 13 63 21 66 18 3 -3 6 -101 7 -218 1 -232 4 -244 65 -304 48 -47 88 -54
307 -53 213 2 239 7 290 62 48 51 53 82 53 321 0 123 2 226 4 228 7 7 206 5
206 -2z m-1070 -1674 l0 -65 -66 0 c-63 0 -65 1 -59 23 12 37 88 107 118 107
4 0 7 -29 7 -65z m1067 -5 l-2 -60 -62 0 c-55 0 -61 2 -56 19 6 23 50 73 78
89 39 22 44 15 42 -48z"/>
<path d="M2112 1608 c-17 -17 -15 -53 4 -72 39 -39 106 1 88 52 -7 21 -17 28
-44 30 -19 2 -41 -3 -48 -10z"/>
</g>
</svg>
